<svg id="Layer_1" data-name="Layer 1" xmlns="http://www.w3.org/2000/svg" viewBox="0 0 227.37 170.39"><defs><style>.cls-1{fill:#004d16}</style></defs><path class="cls-1" d="M127.43 69.29a4.87 4.87 0 0 1 1 2.19q.61 3.33-3.87 8.73a54 54 0 0 1-10.49 9.65q-6 4.23-9.88 4.95a4.2 4.2 0 0 1-3.87-1Q96 100.7 93.15 106.2c-.18.67-.52 1.05-1 1.14s-1-.18-1.69-.76a3.07 3.07 0 0 1-1.18-1.58Q89 103.61 97 91.6a234.32 234.32 0 0 1 14-19.35A122 122 0 0 0 91.33 80a46 46 0 0 1 5.18-1.3q-2.19 1-4 2.05t-2.65 1.55a4.54 4.54 0 0 1-1.44.61 2 2 0 0 1-.86 0 1.94 1.94 0 0 1-.68-.28c-.18-.12-.27-.21-.28-.28a.47.47 0 0 1 .08-.37.51.51 0 0 1-.38-.44q-.45-2.45.93-3.21a94.85 94.85 0 0 1 16.59-7.42 107.18 107.18 0 0 1 14.42-4.08 16.26 16.26 0 0 1 4.85-.33 3.88 3.88 0 0 1 2.66 1.49 4.32 4.32 0 0 1 1.68 1.3zM104 90.9q2.84-.52 8.09-4.5a61.14 61.14 0 0 0 9.28-8.61q4-4.63 3.66-6.69c-.1-.52-.65-.87-1.66-1a12.11 12.11 0 0 0-4 .21q-1.18.21-3.41.72v.15l.07.09c0 .2-.1.46-.42.79a198.65 198.65 0 0 0-13.17 18.51 1.5 1.5 0 0 0 1.56.33zM120.42 96.87c.09 1 .32 1.52.68 1.49s1.73-1 3.78-3 3.78-3.68 5.15-5.13a19.7 19.7 0 0 1 2.53-2.52c.1 0 .25.08.45.26a.88.88 0 0 1 .32.57q.12 1.39-3.8 5.69-6.84 7.51-8.47 7.65a2.47 2.47 0 0 1-2.27-1.35 6.65 6.65 0 0 1-1.13-3.15q-.27-3.08 2-7.78a50.66 50.66 0 0 1 5.58-9 66.7 66.7 0 0 1 7.67-8.3q4.25-3.9 5.55-4a1.75 1.75 0 0 1 1.54.7 3.53 3.53 0 0 1 .77 1.93q.21 2.43-6.56 10.63a103.83 103.83 0 0 1-13.77 14 6.14 6.14 0 0 0-.02 1.31zm11-15.37q5.74-7 5.62-8.35c0-.1 0-.14-.12-.14q-.59 0-3.58 3.09a83.81 83.81 0 0 0-6.59 7.76 44.2 44.2 0 0 0-5.24 8.31 99.22 99.22 0 0 0 9.91-10.67z" transform="translate(-2.46 -4.81)"/><path class="cls-1" d="M133.3 97.41a29.4 29.4 0 0 1-2.44 2.27 3.23 3.23 0 0 1-1.75.86 2.66 2.66 0 0 1-1.91-1 3.06 3.06 0 0 1-1-2q-.05-2.24 2.7-5.72a31.49 31.49 0 0 1 6.36-6.06q3.6-2.58 5.84-2.63a2.76 2.76 0 0 1 1.2.32 4.16 4.16 0 0 1 1.63 1.5 2.94 2.94 0 0 1 1.18-.52 1.1 1.1 0 0 1 .86.35 1.24 1.24 0 0 1 .37.86.88.88 0 0 1-.24.5c-.16.2-.51.57-1 1.09l-1.1 1.1a65.08 65.08 0 0 0-4.31 5.09q-2.27 2.95-2.25 3.74a.13.13 0 0 0 .15.14c.47 0 1.79-.93 4-2.76s4-3.43 5.46-4.79a20.07 20.07 0 0 1 2.68-2.36c.1 0 .24.1.43.29a.9.9 0 0 1 .29.59q0 1.4-4.15 5.43-7.3 7-8.94 7.09a3.06 3.06 0 0 1-1.86-.58 2 2 0 0 1-.89-1.65 8.05 8.05 0 0 1 .82-3.16 28.36 28.36 0 0 0-2.13 2.01zm-.2-3q2.05-1.73 4.85-4.33t3.48-3.22c0-.53-.2-.79-.47-.78q-1.89 0-6.39 4.49t-5.29 6.6a28.8 28.8 0 0 0 3.82-2.72z" transform="translate(-2.46 -4.81)"/><path class="cls-1" d="M146.11 98.64a7 7 0 0 0-.63.67l-.47.58a.4.4 0 0 1-.31.18 2.26 2.26 0 0 1-1.26-.75 1.93 1.93 0 0 1-.74-1.42 5.69 5.69 0 0 1 1.59-2.48l5.13-5.77a1.43 1.43 0 0 1-.45-1.22 12 12 0 0 1 2.5-2.43q3.15-2.72 3.8-2.69a1.64 1.64 0 0 1 .91.36 1.55 1.55 0 0 1 .59.8 1.23 1.23 0 0 1 .46 1 1.93 1.93 0 0 1-.62 1.09c-.4.43-1.13 1.16-2.21 2.18s-2.06 2-3 2.92q10.27-7.55 12.12-7.48a1.48 1.48 0 0 1 .92.63 1.68 1.68 0 0 1 .51 1 2 2 0 0 1-.27 1 6.78 6.78 0 0 1-1.22 1.1q-2.62 2.08-5.92 5.19t-3.33 4.1c0 .1 0 .15.14.16q.7 0 4.14-2.5t5.77-4.42a19.17 19.17 0 0 1 2.83-2.18c.1 0 .23.11.41.31a.89.89 0 0 1 .25.61q-.06 1.39-4.5 5.15-7.75 6.56-9.39 6.49a2.47 2.47 0 0 1-1.72-1.22 3.62 3.62 0 0 1-.83-2.28 7.69 7.69 0 0 1 1.83-4.51 50.15 50.15 0 0 0-7.03 5.83z" transform="translate(-2.46 -4.81)"/><path class="cls-1" d="M184.51 75.47a3.33 3.33 0 0 1 1.74-.88 1.12 1.12 0 0 1 .46-.1 1.59 1.59 0 0 1 1.27.78 1.91 1.91 0 0 1 .39 1 8.65 8.65 0 0 1-1.91 1.56 12.32 12.32 0 0 0-1.25 1c3.8 0 6.41.15 7.83.29.72.07 1.06.38 1 .9a2.57 2.57 0 0 1-.86 1.52c0 .5-.7.68-2 .55q-3.77-.38-9.45-.56-6.16 5-12 10.15t-5.89 6.11a.13.13 0 0 0 .13.16q.69.07 4.28-2.25t6-4.07a19.39 19.39 0 0 1 3-2c.1 0 .23.12.39.34a.89.89 0 0 1 .21.62q-.14 1.39-4.79 4.87-8.12 6.08-9.76 5.92a2.93 2.93 0 0 1-1.84-1.34 3.37 3.37 0 0 1-.84-2.34 3.21 3.21 0 0 1 .36-1.09 9.69 9.69 0 0 1 1.72-2.38c.47-.5.82-.87 1.06-1.09l1.24-1.08c.53-.51.84-.82.92-.91a4.33 4.33 0 0 1-.44-1.1c0-.16.62-.67 1.8-1.52q2.92-2.06 9.53-7.09a2.36 2.36 0 0 1-.55 0c-1.06 0-2.14 0-3.23.05s-1.93.08-2.54.12a9.4 9.4 0 0 1-1.16 0c-.27 0-.5-.24-.71-.62a1.89 1.89 0 0 1-.27-1.08q.09-.85 2.65-1 4.48-.24 9.28-.21z" transform="translate(-2.46 -4.81)"/><path class="cls-1" d="M179.23 98.26q-4.07 4.05-6.23 3.71a2.62 2.62 0 0 1-2.08-1.49 4.61 4.61 0 0 1-.37-2.78 4.7 4.7 0 0 1 1.69-3.36 2.93 2.93 0 0 1 1.76-.28 1.72 1.72 0 0 1-.09-1 3.17 3.17 0 0 1 1.69-2.1l5.53-3.42q.33-.2 1.27-.83c.62-.43 1.14-.75 1.54-1a3.13 3.13 0 0 1 1.46-.71 1.87 1.87 0 0 1 1.24.8 2.22 2.22 0 0 1 1.08 1 1.66 1.66 0 0 1 .22 1 10.11 10.11 0 0 1-1.83 2.38q-2.61 3.42-4.63 5.72a7.81 7.81 0 0 0 4-.77 27.22 27.22 0 0 0 3.95-2.13 9 9 0 0 1 1.78-1c.1 0 .23.13.38.36a.9.9 0 0 1 .18.63q-.14.88-2.22 2.58a16.75 16.75 0 0 1-4.13 2.24 9.86 9.86 0 0 1-5.29.6zm-6.35-.65c-.1.62 0 1 .25 1 .42.07 1.26-.46 2.51-1.57a18.39 18.39 0 0 0-2.23-.56 1.67 1.67 0 0 0-.54 1.13zm1.85-3.44q1.56.35 3.1.79a46.75 46.75 0 0 0 5.12-6.55q-5.02 3.65-8.22 5.77zM151.69 119.14a28.21 28.21 0 0 1-2.33 2.38 3.18 3.18 0 0 1-1.71.95 2.68 2.68 0 0 1-2-.88 3.09 3.09 0 0 1-1.09-2q-.16-2.24 2.43-5.84a31.56 31.56 0 0 1 6.06-6.35q3.48-2.74 5.71-2.9a2.72 2.72 0 0 1 1.22.26 4.16 4.16 0 0 1 1.7 1.43 3 3 0 0 1 1.15-.58 1.11 1.11 0 0 1 .87.31 1.24 1.24 0 0 1 .41.85.85.85 0 0 1-.21.51c-.15.21-.48.6-1 1.15s-.86.94-1 1.15a63.16 63.16 0 0 0-4.06 5.28c-1.42 2-2.11 3.31-2.07 3.84a.13.13 0 0 0 .16.14q.7 0 3.83-2.94t5.23-5a20.05 20.05 0 0 1 2.57-2.48c.1 0 .25.08.44.27a.89.89 0 0 1 .32.58q.1 1.39-3.89 5.62-7 7.39-8.6 7.5a3.06 3.06 0 0 1-1.88-.49 2 2 0 0 1-1-1.6 8 8 0 0 1 .67-3.19c-.39.34-1.05 1.04-1.93 2.03zm-.34-2.95q2-1.81 4.64-4.55t3.33-3.38c-.07-.53-.24-.78-.5-.77q-1.89.14-6.17 4.79t-5 6.85a29.08 29.08 0 0 0 3.7-2.94z" transform="translate(-2.46 -4.81)"/><path class="cls-1" d="M164.52 119.89a6.4 6.4 0 0 0-.59.7l-.45.6a.4.4 0 0 1-.29.21 2.28 2.28 0 0 1-1.3-.69 1.93 1.93 0 0 1-.81-1.39 5.73 5.73 0 0 1 1.48-2.55l4.83-6a1.43 1.43 0 0 1-.51-1.19 12.16 12.16 0 0 1 2.37-2.56q3-2.86 3.66-2.87a1.62 1.62 0 0 1 .93.32 1.5 1.5 0 0 1 .63.76 1.21 1.21 0 0 1 .5 1 1.91 1.91 0 0 1-.56 1.12q-.57.68-2.1 2.28t-2.81 3.06q9.89-8 11.73-8.06a1.46 1.46 0 0 1 1 .59 1.64 1.64 0 0 1 .55.94 1.92 1.92 0 0 1-.21 1 6.63 6.63 0 0 1-1.16 1.15q-2.52 2.21-5.66 5.47t-3.13 4.26a.13.13 0 0 0 .15.15q.7 0 4-2.7t5.54-4.7a20.43 20.43 0 0 1 2.72-2.31c.1 0 .24.1.43.3a.88.88 0 0 1 .28.59c0 .93-1.41 2.72-4.24 5.36q-7.41 6.94-9.05 6.94a2.45 2.45 0 0 1-1.78-1.13 3.6 3.6 0 0 1-.94-2.23 7.69 7.69 0 0 1 1.6-4.59 49.81 49.81 0 0 0-6.81 6.17z" transform="translate(-2.46 -4.81)"/><path class="cls-1" d="M185.26 118.76c-.77.58-1.39 1-1.87 1.37a12.49 12.49 0 0 1-1.54.92 2.8 2.8 0 0 1-1.27.38 2 2 0 0 1-1.49-1.15 4 4 0 0 1-.56-2.34q.15-2.09 2.61-5.16a24.43 24.43 0 0 1 6-5.33 10.83 10.83 0 0 1 6.41-2.07 2.85 2.85 0 0 1 2.58 1.73Q205 99 207.47 97q4.18-3.35 5.72-3.24c.23 0 .47.27.72.75a2.36 2.36 0 0 1 .35 1.07.89.89 0 0 1-.34.55c-.21.2-.72.61-1.53 1.24s-1.79 1.39-2.94 2.31-2.9 2.37-5.28 4.37-5 4.27-7.82 6.84q-2 1.85-4.54 4.54t-2.55 3.19a.13.13 0 0 0 .14.16q.69 0 4.22-2.37t5.89-4.25a20.35 20.35 0 0 1 2.9-2.09c.1 0 .23.12.4.33a.91.91 0 0 1 .23.62q-.1 1.39-4.65 5-7.94 6.33-9.58 6.21c-1.59-.11-2.32-1.07-2.19-2.85a9.72 9.72 0 0 1 .33-1.87q-.53.39-1.69 1.25zm7.9-10q-2-.14-6.27 3.23a21 21 0 0 0-5.73 6.11q3.77-1.73 12.45-8.75.04-.53-.45-.56zM119.42 142.9q-1.73 2.17-2.81 3.46a23.34 23.34 0 0 1-2.43 2.49 5.53 5.53 0 0 1-2.28 1.39 2.44 2.44 0 0 1-.83 0 2.88 2.88 0 0 1-1.49-.58c-.34-.22-.54-.36-.62-.43l-.68-.59-.62-.53a4.63 4.63 0 0 1-1.79-2.47q-.8-3.85 2.67-10.18a63.74 63.74 0 0 1 8.62-12 103.51 103.51 0 0 1 10.41-10.06q5.26-4.39 7.94-4.95a3.78 3.78 0 0 1 2.67.48 6.53 6.53 0 0 1 2.25 2.1 3.16 3.16 0 0 1 .86-.74c.39-.08.79.12 1.19.59a3.76 3.76 0 0 1 .81 1.69 7.38 7.38 0 0 1-1.07 1.9l-11.35 16.72q-2.56 3.79-4.79 7.69t-2 5a.13.13 0 0 0 .18.12c.45-.09 1.59-1.24 3.4-3.43s3.31-4.1 4.5-5.7a20.08 20.08 0 0 1 2.21-2.8c.1 0 .26 0 .48.21a.91.91 0 0 1 .39.53q.28 1.37-3.1 6.09-5.9 8.25-7.51 8.59a2.46 2.46 0 0 1-2-.76 3.61 3.61 0 0 1-1.36-2 9 9 0 0 1 .72-5q-.84 1-2.57 3.17zm12.19-19.77q-1-1.51-1.05-1.61c0-.13.2-.36.67-.7a26.44 26.44 0 0 0 4.52-4.43q2.31-2.8 2.07-4-.11-.49-.88-.33-2.14.45-6.55 4a68.32 68.32 0 0 0-8.58 8.43 79.16 79.16 0 0 0-9.06 12.61q-3.61 6.32-3 9.11c.07.35.28.5.6.43q1.75-.37 7.78-6.92a169.72 169.72 0 0 0 11.15-13.43z" transform="translate(-2.46 -4.81)"/><path class="cls-1" d="M132.7 144.27a6.49 6.49 0 0 0-.53.75l-.39.64a.39.39 0 0 1-.28.22 2.27 2.27 0 0 1-1.36-.56 1.94 1.94 0 0 1-.93-1.31 5.7 5.7 0 0 1 1.24-2.68l4.26-6.43a1.43 1.43 0 0 1-.61-1.14 12.22 12.22 0 0 1 2.13-2.76c1.83-2.08 3-3.14 3.39-3.19a1.68 1.68 0 0 1 .95.23 1.53 1.53 0 0 1 .7.71 1.23 1.23 0 0 1 .59.94 1.89 1.89 0 0 1-.46 1.17c-.34.48-1 1.3-1.88 2.46s-1.76 2.26-2.52 3.3q9.12-8.91 11-9.1a1.47 1.47 0 0 1 1 .5 1.66 1.66 0 0 1 .64.89 2 2 0 0 1-.12 1.06 6.77 6.77 0 0 1-1.05 1.25q-2.31 2.44-5.14 6t-2.73 4.52a.13.13 0 0 0 .16.14q.69-.07 3.75-3.05t5.09-5.18a20 20 0 0 1 2.5-2.56c.1 0 .25.07.45.25a.89.89 0 0 1 .34.57q.14 1.39-3.74 5.73-6.75 7.57-8.38 7.74a2.48 2.48 0 0 1-1.88-1 3.65 3.65 0 0 1-1.14-2.14 7.68 7.68 0 0 1 1.18-4.72 49.7 49.7 0 0 0-6.23 6.75z" transform="translate(-2.46 -4.81)"/><path class="cls-1" d="M149.13 144.64a2.46 2.46 0 0 1-1.81-1.07 3.61 3.61 0 0 1-1-2.2q-.08-2 2.4-5.59a54.85 54.85 0 0 1 4.34-5.62 9.34 9.34 0 0 1 2-1.93 2.77 2.77 0 0 1 1.43.74c.65.5 1 .89 1 1.15a.21.21 0 0 1 0 .1.4.4 0 0 1-.07.1l-.09.13a1.39 1.39 0 0 1-.19.23 4.22 4.22 0 0 1-.31.31l-.45.47-.57.63q-1.38 1.55-3 3.67t-2.58 3.58a7.21 7.21 0 0 0-1 1.66.13.13 0 0 0 .16.14c.46 0 1.77-1 3.92-2.84s3.93-3.51 5.37-4.9a20.18 20.18 0 0 1 2.64-2.41c.1 0 .24.09.44.28a.87.87 0 0 1 .3.59q.06 1.39-4 5.51-7.28 7.2-8.93 7.27zm8.34-17.39a2.54 2.54 0 0 1-.54-1.49 2.23 2.23 0 0 1 .63-1.53 2 2 0 0 1 1.36-.8 1.55 1.55 0 0 1 1.17.55 2.1 2.1 0 0 1 .61 1.47 2.36 2.36 0 0 1-.57 1.65 1.87 1.87 0 0 1-1.36.78 1.46 1.46 0 0 1-1.29-.63z" transform="translate(-2.46 -4.81)"/><path class="cls-1" d="M170.59 138q-2.76 2.46-4.4 4.21a3 3 0 0 0-.47.56 3.79 3.79 0 0 1-.34.47.35.35 0 0 1-.28.14 2.16 2.16 0 0 1-1.57-.87 2.38 2.38 0 0 1-.7-1.54 10.82 10.82 0 0 1 1.45-1.95l6.08-7.16a72.75 72.75 0 0 0-6.83 5.37 72.29 72.29 0 0 0-6.19 5.73c-.28.42-.53.63-.76.62a1.82 1.82 0 0 1-1.23-.68 2 2 0 0 1-.61-1.41 4.78 4.78 0 0 1 1.31-2.66q1.39-1.65 3.12-3.62l1.93-2.21a1.51 1.51 0 0 1-.46-1.26 14.22 14.22 0 0 1 2.71-2.66 18.38 18.38 0 0 1 3.26-2.6 2.18 2.18 0 0 1 1.6.82 2.4 2.4 0 0 1 .68 1.69 1.24 1.24 0 0 1-.39.66c-.26.27-.83.85-1.72 1.72s-1.83 1.87-2.82 3q1.07-.77 3-2.26t3.51-2.64c1-.77 2-1.42 2.89-2a1.94 1.94 0 0 1 1-.47 1.48 1.48 0 0 1 .86.4 1.2 1.2 0 0 1 .5.79 1.79 1.79 0 0 1 .47 1.16 1.28 1.28 0 0 1-.26.59c-.18.26-.45.6-.8 1s-.7.79-1 1.12l-1.28 1.34-1.23 1.29q7.28-5.43 9.61-6.86a4.62 4.62 0 0 1 2.51-.77.72.72 0 0 1 .64.32 3.09 3.09 0 0 1 .32 1 1.12 1.12 0 0 0 .09.28.87.87 0 0 1 .09.32.42.42 0 0 1-.21.34 66.33 66.33 0 0 0-6.45 6.15q-3.85 4.07-3.88 5.22a.13.13 0 0 0 .15.15q.69 0 4.11-2.55t5.7-4.5a19.87 19.87 0 0 1 2.8-2.22c.1 0 .24.11.41.31a.89.89 0 0 1 .26.6q0 1.39-4.43 5.21-7.66 6.66-9.3 6.62a2.45 2.45 0 0 1-1.73-1.19 3.62 3.62 0 0 1-.86-2.27 6.83 6.83 0 0 1 .9-2.86 17 17 0 0 1 1.95-3 22.81 22.81 0 0 0-3.71 3.01z" transform="translate(-2.46 -4.81)"/><path class="cls-1" d="M186.51 141.79a27.22 27.22 0 0 1-2.74 1.91 3.21 3.21 0 0 1-1.85.61 2.66 2.66 0 0 1-1.76-1.24 3.07 3.07 0 0 1-.7-2.17q.26-2.23 3.49-5.28a31.34 31.34 0 0 1 7.15-5.1q3.93-2 6.16-1.78a2.82 2.82 0 0 1 1.15.49 4.17 4.17 0 0 1 1.4 1.72 3 3 0 0 1 1.25-.35 1.11 1.11 0 0 1 .8.47 1.22 1.22 0 0 1 .24.91.84.84 0 0 1-.31.46c-.19.18-.59.49-1.19.94l-1.24.93a63.54 63.54 0 0 0-5 4.42c-1.78 1.73-2.7 2.86-2.76 3.39a.13.13 0 0 0 .13.17q.7.08 4.32-2.17t6.09-4a19.42 19.42 0 0 1 3-2c.1 0 .22.13.38.34a.9.9 0 0 1 .2.63q-.16 1.38-4.88 4.79-8.23 5.94-9.86 5.75a3 3 0 0 1-1.76-.83 2 2 0 0 1-.64-1.76 8 8 0 0 1 1.26-3c-.51.38-1.28.96-2.33 1.75zm.22-3q2.28-1.41 5.42-3.6t3.91-2.69c0-.53-.09-.82-.35-.85q-1.88-.23-7 3.54t-6.15 5.81a28.18 28.18 0 0 0 4.17-2.16z" transform="translate(-2.46 -4.81)"/><path class="cls-1" d="M201.55 142.25c-.18 1-.1 1.55.26 1.62s1.94-.55 4.45-1.89 4.62-2.53 6.33-3.57a20 20 0 0 1 3.11-1.75c.1 0 .22.14.36.37a.88.88 0 0 1 .16.64Q216 139 211 142.13q-8.59 5.4-10.21 5.1a2.46 2.46 0 0 1-1.82-1.91 6.63 6.63 0 0 1-.25-3.33q.56-3 4-7a50.16 50.16 0 0 1 7.78-7.17 67 67 0 0 1 9.6-5.95q5.15-2.62 6.41-2.38a1.76 1.76 0 0 1 1.31 1.15 3.56 3.56 0 0 1 .23 2.07q-.44 2.4-9.16 8.49a103.44 103.44 0 0 1-17 9.78 6.53 6.53 0 0 0-.34 1.27zm14.7-11.87q7.38-5.17 7.64-6.54c0-.1 0-.15-.07-.16q-.59-.11-4.27 2a84.23 84.23 0 0 0-8.42 5.71 44.57 44.57 0 0 0-7.27 6.61 99.24 99.24 0 0 0 12.39-7.62z" transform="translate(-2.46 -4.81)"/><path class="cls-1" d="M216.86 145.46q-4.41 3.67-6.54 3.13a2.62 2.62 0 0 1-1.94-1.67 4.57 4.57 0 0 1-.12-2.8 4.68 4.68 0 0 1 2-3.2 2.94 2.94 0 0 1 1.77-.11 1.7 1.7 0 0 1 0-1 3.18 3.18 0 0 1 1.87-1.94l5.81-2.91q.35-.17 1.33-.72c.66-.36 1.2-.65 1.63-.85a3 3 0 0 1 1.52-.54 1.84 1.84 0 0 1 1.16.9 2.2 2.2 0 0 1 1 1 1.68 1.68 0 0 1 .14 1 10.37 10.37 0 0 1-2 2.21q-2.9 3.17-5.13 5.28a7.78 7.78 0 0 0 4.09-.41 26.88 26.88 0 0 0 4.09-1.69 9.05 9.05 0 0 1 1.86-.87c.1 0 .21.16.34.39a.89.89 0 0 1 .12.65q-.22.87-2.44 2.36a16.69 16.69 0 0 1-4.32 1.87 9.83 9.83 0 0 1-5.32.13zm-6.27-1.21c-.15.61-.1.95.16 1q.63.16 2.65-1.34a19 19 0 0 0-2.17-.75 1.64 1.64 0 0 0-.64 1.08zm2.15-3.26q1.52.49 3 1.06a46.72 46.72 0 0 0 5.68-6.07q-5.29 3.18-8.67 5.02zM37.1 70.06a2.67 2.67 0 0 0-.75-.17l-.35-.05a6.54 6.54 0 0 0 2.15 3.11 1.57 1.57 0 0 1 .07-1.95.39.39 0 0 1 .11-.1l-.16-.13a5.36 5.36 0 0 0-1.07-.71zM64.64 66.56l.11-.29-.84.38a8.14 8.14 0 0 0-2 1.12 14.07 14.07 0 0 1 1.83 1.48c.26-.91.57-1.81.9-2.69zM10.38 13.7a2.5 2.5 0 0 0 .31.74l.1-.07a1.48 1.48 0 0 0 0-1.47c-.13-.22-.25-.29-.35-.31a3 3 0 0 1-.12.28.5.5 0 0 0 0 .54zM5.85 15.63c-.21-.11-.64.06-1 .31a3.9 3.9 0 0 0 1.05 1.39 1.22 1.22 0 0 0 .14-.41c.12-.45.13-1.13-.21-1.28zM53.31 74.58a.42.42 0 0 1 0 .21 1.8 1.8 0 0 0 .12 1.79c.05 0 .22.19.64-.09s.58-1.62.56-2.36a9.9 9.9 0 0 0-1.32.45zM11.72 18.7a1 1 0 0 0-.59-.16 2.24 2.24 0 0 0-.79.16 1.52 1.52 0 0 0-.94 1.39c-.09.91.39 1.48 1.42 1.7.24.05.32 0 .35 0 .21-.14.31-.66.38-1a4.43 4.43 0 0 1 .19-.61c.27-.76.36-1.18.1-1.38a.32.32 0 0 1-.12-.1zM14.78 13.39a.48.48 0 0 1-.18.05h-.12a.49.49 0 0 1-.19 0 1.69 1.69 0 0 0-.61.16c-.12.08-.16.15-.16.16a.53.53 0 0 0 .43.11c.35-.01.81-.2.83-.48zM55.42 74a4.94 4.94 0 0 1-.51 2.82 7.75 7.75 0 0 0 4-2.52 6.48 6.48 0 0 0-3.49-.3zM40 59.18Q40 57 39.88 55c0 .17 0 .33-.07.5a21.3 21.3 0 0 1-.74 3.7h.29zM38.71 70.15a7.18 7.18 0 0 0 .71.54 31 31 0 0 0 2.64 1.73 5.86 5.86 0 0 0-5.61-3.38 3.05 3.05 0 0 1 1 .24 5.85 5.85 0 0 1 1.26.87zM52.28 75.11a6.66 6.66 0 0 0-1.68 1.4 7.52 7.52 0 0 0 2 .45 2.67 2.67 0 0 1-.32-1.85zM55 73.12a.46.46 0 0 1 .16 0 8.23 8.23 0 0 1 3.24.06 4.38 4.38 0 0 0-2.79-.72h-.75a5 5 0 0 0-4 2.54 9.14 9.14 0 0 1 3.84-1.82.4.4 0 0 1 .3-.06zM15.06 18.76a1.56 1.56 0 0 0 .81-.79.29.29 0 0 0 0-.27.66.66 0 0 0-.49-.22.39.39 0 0 1-.24.15.45.45 0 0 1-.23.1.89.89 0 0 0-.3.46.61.61 0 0 0 .06.57c.08.09.33.03.39 0zM64.05 154.73a48.62 48.62 0 0 1-7.07 9.7c1.22.72 2.77.57 4.26.41l.71-.07c.8-.07 1.6-.08 2.36-.09a22.1 22.1 0 0 0 2.85-.15 89.47 89.47 0 0 0 12.11-2.32c4.31-1.23 9.19-2.83 12.53-6.25 3-3.21 6.73-7.23 8.94-11.73.54-1.11 1-2.32 1.43-3.49.28-.75.58-1.53.89-2.28a29.78 29.78 0 0 1 1.52-3.12 24.92 24.92 0 0 0 1.61-3.38 44.26 44.26 0 0 0 2.15-11.1c.43-4.44.32-7.9-1.56-11.35-.69-1.31-2.79-5.29-5.39-6a3.22 3.22 0 0 0-2.63.45 15.14 15.14 0 0 0-7.21 11.59c-.22 2.54.36 3.84 1.86 4.23a13.06 13.06 0 0 0 3.69.34 23.69 23.69 0 0 1-1.87-2 2.75 2.75 0 0 1-.35-2.9c.06-.22.13-.45.18-.69a.42.42 0 0 1 .4-.33 3.35 3.35 0 0 1 2.52 1c2.14 2.16 2.23 7.23 2.18 9.31A24.55 24.55 0 0 1 97.73 135a51.93 51.93 0 0 1-7.88 11.62c-.35.39-.68.78-1 1.17a27.81 27.81 0 0 1-4.52 4.52 37.08 37.08 0 0 1-6.84 4.31l-.79.38c-1.91.91-4.29 2-6.32 1.59a13.19 13.19 0 0 1-6.22-3.86zM103.47 24.48c.24-.45.5-.9.76-1.34a18.1 18.1 0 0 0 1.49-2.94 28.76 28.76 0 0 0-3.08 3.8 1.64 1.64 0 0 1 .43.16 1.63 1.63 0 0 1 .4.32zM106.15 29.27l.63-.48a11.58 11.58 0 0 0 2.33-2.1c-1.19.65-2.41 1.32-3.63 1.95a2.7 2.7 0 0 1 .67.63zM19.17 17a32.55 32.55 0 0 0 4.35-3.84l-.55.3c-.24.14-.5.28-.77.41L22 14a35.91 35.91 0 0 0-3.48 1.66 2.12 2.12 0 0 1 .49.81 2 2 0 0 1 .16.53zM98.76 23c.12-.61.24-1.24.34-1.87.16-.8.36-1.61.56-2.39.15-.58.3-1.17.43-1.77a22.43 22.43 0 0 0-2.21 3.66l-.11.22a15.68 15.68 0 0 0-.7 1.71c-.3.77-.49 1.28-.66 1.62a19.84 19.84 0 0 1 2 .89c.08-.64.21-1.34.35-2.07zM25.81 163.68a38.48 38.48 0 0 0-.68-4.64 27 27 0 0 1-.69-6.68l.09-1.45a33.45 33.45 0 0 1 1.47-9.38c.17-.48.43-1.08.74-1.78 1.28-3 3.42-7.9 1.19-9.57a2 2 0 0 0-1-.22 8 8 0 0 0-3.45 1c-1.3.81-1.78 2.41-2.23 4-.08.27-.16.55-.25.81-2.19 6.24-2.68 13-3.1 19.64v.11a.41.41 0 0 1-.08.43 1.28 1.28 0 0 1 0 .13l-.22 3.43a24.67 24.67 0 0 1-2.71 11.13c-1 1.69-1.3 3.1-1 3.87a1.36 1.36 0 0 0 1 .75.86.86 0 0 0 .7-.13c.64-.42 1.18-1.66 1.52-3.48a.48.48 0 0 1 .91 0c0 .16.06.34.09.53.14.82.34 2.06.9 2.43a.82.82 0 0 0 .67.09 2.29 2.29 0 0 0 1.32-1.28 4.5 4.5 0 0 0 .36-.84 5.58 5.58 0 0 1 .07-1.59.42.42 0 0 1 .39-.33.43.43 0 0 1 .43.29 3.12 3.12 0 0 1 0 1.7 1.18 1.18 0 0 0 .3.76c.11.06.32 0 .59-.24a6.76 6.76 0 0 0 1.33-2.83 3.38 3.38 0 0 1 0-.86.42.42 0 0 1 .41-.35.42.42 0 0 1 .41.35 2.61 2.61 0 0 1 0 .87.94.94 0 0 0 .27.63.2.2 0 0 0 .22 0c.2-.1.44-.48.47-1.24a22.17 22.17 0 0 0-.24-3.48c-.01-.83-.17-1.72-.2-2.58zM37 168.51c-.49-1.69-.81-3.51-1.13-5.26a43.86 43.86 0 0 1-.69-8.62c0-1.73-.05-3.51-.2-5.27 0-.35-.06-.68-.1-1A11.43 11.43 0 0 1 35 144c.39-2 .8-4 1-6 0-.18 0-.38.05-.58.16-1.73.35-3.68-.26-5.17-.37-1-1-1.5-1.66-1.5a2.63 2.63 0 0 0-2.13 1.83 6.1 6.1 0 0 0-.44 1.88 10.22 10.22 0 0 1-.18 1.19 9.81 9.81 0 0 1-.81 1.76 11.73 11.73 0 0 0-.65 1.33 13.35 13.35 0 0 0-.69 4.26c0 .43 0 .88-.08 1.35a42.77 42.77 0 0 0 .24 10.65c.14 1.07.3 2.17.46 3.23a78.07 78.07 0 0 1 .92 8.09 14 14 0 0 1 0 3.23 3 3 0 0 1-1.2 2 7.29 7.29 0 0 0-.67.64c-.23.28-1 1.26-.57 1.76a.42.42 0 0 0 .31.09 4 4 0 0 0 1.3-.38l.34-.14a.42.42 0 0 1 .15 0 .41.41 0 0 1 .22.06.4.4 0 0 1 .2.32c.08.89.32 1.28.43 1.28a.49.49 0 0 0 .26-.13 3.44 3.44 0 0 0 .67-1.53 6 6 0 0 1 .33-1 .43.43 0 0 1 .48-.22.42.42 0 0 1 .32.41c0 .42.59 1.64.93 1.67s.77-1 1-1.59a5.22 5.22 0 0 1 .26-.68.42.42 0 0 1 .45-.23.42.42 0 0 1 .34.37 3.79 3.79 0 0 0 1.42 2.44s.16-.14.23-.83a10.44 10.44 0 0 0-.61-4c-.12-.51-.24-.93-.36-1.35zM4.48 12.49c-.2-.76-.42-1.53-.67-2.29-.13-.43-.23-.87-.34-1.34S3.18 7.64 3 7.07c0 .21 0 .43-.07.65a18.35 18.35 0 0 0 0 5.46 3.63 3.63 0 0 1 1.55-.69zM18 9.62c.25-.24.49-.47.65-.68a15.42 15.42 0 0 0 .95-1.4 29.81 29.81 0 0 1-3.28 2.94 2.12 2.12 0 0 1 .64.3A7.38 7.38 0 0 1 18 9.62zM10.22 9.43a31.72 31.72 0 0 1-.28-3.28c0-.44-.05-.89-.08-1.34a17 17 0 0 0-.76 4.73l.2-.07a2.35 2.35 0 0 1 .92-.04z" transform="translate(-2.46 -4.81)"/><path class="cls-1" d="M105.91 33.31a.46.46 0 0 1 0-.09 2.41 2.41 0 0 0-1-1.71.42.42 0 0 1-.16-.37.41.41 0 0 1 .22-.34c.46-.25.66-.52.57-.79a2.45 2.45 0 0 0-2.26-1.15.41.41 0 0 1-.37-.16.42.42 0 0 1-.07-.39c.63-1.9.32-3.1-.24-3.4s-1.48 0-2.74 1.54a.42.42 0 0 1-.49.13c-.4-.17-.83-.39-1.29-.62-1.37-.68-3.07-1.52-3.85-1.08a1.42 1.42 0 0 0-.55 1.19c-.16 1.68.71 3.38 1.64 5.18a12.68 12.68 0 0 1 1.75 4.91c.14 3.11-1.48 6.48-2.92 9.46l-.51 1.05a168.68 168.68 0 0 1-10.75 19.85c-4.35 6.66-9.27 13.43-15.49 21.3a45.25 45.25 0 0 1-7.74 7c-.81.58-1.66 1.18-2.46 1.87l-.08.11a.4.4 0 0 1-.26.16l-.32.26c-1.68 1.38-3.43 2.72-5.12 4s-3.42 2.62-4.7 3.78a.42.42 0 0 1-.6-.05.43.43 0 0 1 .05-.6c1.33-1.12 3-2.39 4.73-3.73s3.43-2.63 5.1-4l.58-.47a23.21 23.21 0 0 0 4.34-9.43l-.21-.2a4.22 4.22 0 0 0-1.22-1 3.77 3.77 0 0 0-3 .13 6.27 6.27 0 0 1-1.84.39.42.42 0 1 1 0-.85 5.57 5.57 0 0 0 1.59-.35 4.54 4.54 0 0 1 3.59-.09 4.13 4.13 0 0 1 1.24.9 18.54 18.54 0 0 0 .17-2l-1-.48a5.17 5.17 0 0 0-3.24-.43 5.41 5.41 0 0 0-1.49.63 5.73 5.73 0 0 1-1.91.74.42.42 0 1 1-.11-.84 5 5 0 0 0 1.62-.65 6.28 6.28 0 0 1 1.73-.72 6.09 6.09 0 0 1 3.71.51l.67.31a19.57 19.57 0 0 0-.22-2.1l-1.19-.2a6.75 6.75 0 0 0-3.87.38 10.14 10.14 0 0 0-1.08.53 7.5 7.5 0 0 1-2.86 1.1 1 1 0 0 1-.57-.16.42.42 0 0 1 .47-.7c.32.19 2-.68 2.56-1a9.71 9.71 0 0 1 1.19-.57 7.55 7.55 0 0 1 4.35-.43l.88.16v-.16a3.84 3.84 0 0 1-.2-1.71c.2-.64.91-1.14 1.6-1.62a5.85 5.85 0 0 0 .9-.71A9.49 9.49 0 0 0 64.84 73a21.45 21.45 0 0 0 2.7-10.8 9.07 9.07 0 0 0-4.38 1.8c-.42.26-.81.5-1.2.73-.59.32-1.24.61-1.87.89A14 14 0 0 0 57.41 67a.43.43 0 0 1-.25.08h-.08a.44.44 0 0 1-.3-.12l-.16-.16a.43.43 0 0 1-.12-.23c-1.14-6.51-11.28-5.57-13.3-5.33a.42.42 0 0 1-.46-.29 13.76 13.76 0 0 1-.49-5.54c0-.44 0-.89.06-1.37.1-3-.67-4.59-2.55-5.33a8.53 8.53 0 0 0-.29 1.52 11.05 11.05 0 0 1-.28 1.52c-.13.53-.3 1.06-.45 1.57a19.86 19.86 0 0 0-.58 2.18 38.33 38.33 0 0 1-2.89 8.16c-.39.89-.79 1.8-1.16 2.71a7.1 7.1 0 0 0-.7 3.48c0 .14.06.27.1.4a3.11 3.11 0 0 1 .15.78 3.18 3.18 0 0 1-.1 1.21 9.5 9.5 0 0 1 4.12 3.59 1.9 1.9 0 0 1 .22 1.58.43.43 0 0 1-.39.27.38.38 0 0 1-.16 0 .42.42 0 0 1-.24-.55 1.15 1.15 0 0 0-.18-.88A8.49 8.49 0 0 0 33.22 73l-.22.4-.1.18a14.05 14.05 0 0 0-.59 1.42l.42.14a7.11 7.11 0 0 1 4.09 4.27.41.41 0 0 1 .14.31v.32a.42.42 0 0 1-.39.42.42.42 0 0 1-.42-.35A6.12 6.12 0 0 0 32.46 76l-.41-.13a19.56 19.56 0 0 0-.55 2.67c.29.14.61.27.94.41 1.34.55 2.87 1.17 3.21 2.68a.42.42 0 0 1-.32.51h-.09a.42.42 0 0 1-.41-.33c-.25-1.08-1.5-1.59-2.7-2.09l-.73-.31a25.82 25.82 0 0 0 0 4.84c.31 2.77 2.35 8.14 5.68 8a.42.42 0 0 1 .44.4.42.42 0 0 1-.4.44c-1.79.07-3.42-1-4.71-3.25-2-1-3.45-3.66-4.54-5.61l-.23-.42A71.54 71.54 0 0 1 23.39 75c-3.81-10.11-5.82-20.29-7.87-31.61a66 66 0 0 1-1.22-16.26c.12-1.46.24-2.91.36-4.24.12-2 .49-2.36 1.9-3.43l.32-.25c1.13-.81 1.65-1.74 1.39-2.51s-1.48-1.37-3-1.32a.44.44 0 0 1-.41-.27.43.43 0 0 1 .11-.47l.51-.43c.68-.56 1.61-1.33 1.59-1.94a1 1 0 0 0-.5-.72 2 2 0 0 0-1.58-.24 2.63 2.63 0 0 0-1.76 1 .42.42 0 0 1-.77-.08c-.31-1-1.82-2.17-2.87-1.89S8 12.09 7.89 13.42a.43.43 0 0 1-.22.33.41.41 0 0 1-.39 0c-1.61-.77-3.19-.64-4.13.35A3.15 3.15 0 0 0 3 17.87c1.78 2.67 4.29 5.36 5.47 5.13a.42.42 0 1 1 .16.83c.07.46.11 1.16.15 2.22 0 .64.06 1.25.1 1.67a70.53 70.53 0 0 1-.17 9.5 63.21 63.21 0 0 0-.07 10.67l.06.58a155.64 155.64 0 0 0 2.95 19.43 73.59 73.59 0 0 0 5.31 13.83c.63 1.37 1.29 2.79 1.92 4.22 1.61 3.81 3.43 7.64 5.2 11.34.75 1.58 1.53 3.22 2.29 4.84v.12c-1.53 1.77-2.33 4.09-3.18 6.54-.37 1.08-.76 2.2-1.22 3.26v.05a19.68 19.68 0 0 0-.94 1.89 20.06 20.06 0 0 1-1 1.95c-.44 1.11-.9 2.24-1.35 3.33-3.29 8-6.69 16.34-4.18 25.12.42 1.25.82 2.53 1.2 3.78.5 1.62 1 3.26 1.59 4.89.41-6.06 1-12.22 3-17.95.08-.25.16-.52.24-.78.48-1.62 1-3.45 2.6-4.43 1.12-.69 4-1.57 5.36-.72 2.79 2.06.57 7.19-.91 10.59-.3.68-.55 1.27-.72 1.73a33 33 0 0 0-1.48 9.5c0 .49-.06 1-.09 1.45a26 26 0 0 0 .68 6.47 40.35 40.35 0 0 1 .69 4.75c0 .83.14 1.71.24 2.55v.15a15.61 15.61 0 0 0 3.09 2.3 18 18 0 0 0-.08-2.28 78.68 78.68 0 0 0-.9-8c-.16-1.06-.33-2.16-.47-3.24a44 44 0 0 1-.24-10.81c0-.43.06-.88.09-1.31a13.94 13.94 0 0 1 .75-4.52 12.49 12.49 0 0 1 .7-1.43 9 9 0 0 0 .74-1.59 9.93 9.93 0 0 0 .17-1.08 6.68 6.68 0 0 1 .5-2.13 3.4 3.4 0 0 1 2.92-2.33 2.72 2.72 0 0 1 2.45 2c.68 1.68.49 3.73.32 5.55 0 .2 0 .4-.05.59-.25 2-.66 4.1-1.06 6.09a10.61 10.61 0 0 0-.09 4.07c0 .33.07.67.1 1 .16 1.79.18 3.59.21 5.33a42.78 42.78 0 0 0 .67 8.47c.32 1.75.64 3.53 1.12 5.21.1.42.22.83.34 1.27s.22.79.32 1.2c4.78.18 9.17-1.57 13.25-3.39a9.55 9.55 0 0 0 1.25-.8 11.24 11.24 0 0 1 1.34-.86c3.91-3.31 6.59-7.33 9.23-11.86a.43.43 0 0 1 .22-.4l.78-1.36c.22-.44.39-.9.58-1.39s.36-1 .6-1.46a25.63 25.63 0 0 0 1.42-9.48A118.83 118.83 0 0 0 62.49 114c-1.68 1.91-3.3 3.73-4.5 5a.41.41 0 0 1-.31.13.43.43 0 0 1-.29-.11.41.41 0 0 1 0-.59c1.52-1.61 3.73-4.13 5.87-6.57 1.3-1.48 2.53-2.88 3.53-4a46.28 46.28 0 0 0 4.85-6.76c.44-.7.89-1.42 1.37-2.16a163.62 163.62 0 0 0 12.36-21.88c.5-1 1-1.92 1.48-2.86 2.86-5.52 5.57-10.73 7.35-16.88.63-2.1 1.12-4.32 1.65-6.68 1.23-5.5 2.51-11.19 5.49-15.66a.42.42 0 0 1 .51-.16c.28.11.53.22.78.33a3.1 3.1 0 0 0 1.75.46.47.47 0 0 1 .37-.14 2.48 2.48 0 0 0 .51-.4 2.34 2.34 0 0 0 .68-1.43.46.46 0 0 1-.03-.33zM60.83 67.6a.44.44 0 0 1 .21-.17 7 7 0 0 1 2.52-1.54 9.88 9.88 0 0 0 1.73-.9.41.41 0 0 1 .5 0 .42.42 0 0 1 .15.48c-.17.47-.34.93-.5 1.39a31.5 31.5 0 0 0-1.1 3.33.42.42 0 0 1-.31.31h-.1a.42.42 0 0 1-.31-.14A13 13 0 0 0 61 68.18a.42.42 0 0 1-.17-.58zM6.91 17.12c-.14.64-.42 1-.84 1.06h-.13C5.63 18.19 5 18 4 16.09a.53.53 0 0 1 .07-.54 2 2 0 0 1 2.16-.67 1.85 1.85 0 0 1 .68 2.24zm2.62-4.61a1.49 1.49 0 0 0 .12-.35.41.41 0 0 1 .14-.24.38.38 0 0 1 .21-.12 1.25 1.25 0 0 1 1.53.67 2.23 2.23 0 0 1-.19 2.53 1 1 0 0 1-.67.29.78.78 0 0 1-.2 0c-.54-.15-.75-.82-.9-1.31l-.08-.24a1.3 1.3 0 0 1 .04-1.23zm3 7.92a4.1 4.1 0 0 0-.16.49 2.25 2.25 0 0 1-.76 1.56 1.09 1.09 0 0 1-.62.18 1.72 1.72 0 0 1-.37 0A2.3 2.3 0 0 1 8.56 20a2.31 2.31 0 0 1 1.49-2.11 2.4 2.4 0 0 1 2.07.06h.08c1.01.61.59 1.79.34 2.48zm.2-6.37a1 1 0 0 1 .51-1.16 2.46 2.46 0 0 1 1-.28 1 1 0 0 1 .94 0 .88.88 0 0 1 .43.8 1.6 1.6 0 0 1-1.55 1.33h-.2a1.18 1.18 0 0 1-1.12-.68zm1 3.89a1.63 1.63 0 0 1 .85-1 1 1 0 0 1 .67-.27 1.52 1.52 0 0 1 1.25.57 1.12 1.12 0 0 1 .13 1 2.37 2.37 0 0 1-1.32 1.32 1.64 1.64 0 0 1-.54.1 1.06 1.06 0 0 1-.74-.27 1.41 1.41 0 0 1-.26-1.4zm43.5 50.9a.42.42 0 0 1 .66.53 9.34 9.34 0 0 0-.59 1 4.39 4.39 0 0 1-.49.77.43.43 0 0 1-.3.13.42.42 0 0 1-.3-.72c.05-.07.23-.37.36-.6a10.53 10.53 0 0 1 .66-1.11zM55 70.38a4.17 4.17 0 0 1 .88-2.31.42.42 0 0 1 .59.05.43.43 0 0 1-.05.6 4.21 4.21 0 0 0-.59 1.81c0 .12 0 .25-.07.36a.42.42 0 0 1-.41.34h-.08a.42.42 0 0 1-.33-.5zm-1.09-2a.42.42 0 0 1 .55-.23.43.43 0 0 1 .23.55 5.36 5.36 0 0 0 0 2.07.43.43 0 0 1-.31.51h-.11a.42.42 0 0 1-.41-.32 6 6 0 0 1 .01-2.57zm-4.67 8c1.34-3 3.17-4.53 5.6-4.68 1.88-.09 3.93.06 4.9 1.83a.4.4 0 0 1 .05.22.41.41 0 0 1 .21.25.43.43 0 0 1-.08.35 8.4 8.4 0 0 1-6.68 3.47 8.57 8.57 0 0 1-3.83-.94.42.42 0 0 1-.21-.53zm-.7 1.38a.42.42 0 0 1 .6 0 .43.43 0 0 1 0 .6 4.57 4.57 0 0 1-2.93 1.21 3.56 3.56 0 0 1-2.74-1.34.42.42 0 0 1 .53-.53c1.43 1.64 3.26 1.09 4.51.04zM43.21 67a4.61 4.61 0 0 0 .93-.67.42.42 0 1 1 .6.6 5.49 5.49 0 0 1-1.09.8 2.61 2.61 0 0 0-1.24 1.17.41.41 0 0 1-.39.26.41.41 0 0 1-.16 0 .42.42 0 0 1-.22-.55A3.39 3.39 0 0 1 43.21 67zM42 65.45a.42.42 0 0 1 .74.41 17.42 17.42 0 0 0-1.18 2.44.42.42 0 0 1-.4.28h-.14a.42.42 0 0 1-.25-.54A17.92 17.92 0 0 1 42 65.45zm-4-5.76a17 17 0 0 0 1-4.26 22.42 22.42 0 0 1 .7-3.59.43.43 0 0 1 .45-.29.42.42 0 0 1 .38.38c.22 2.25.32 4.74.32 7.61a.42.42 0 0 1-.32.41 5.93 5.93 0 0 1-1.11.13 5.33 5.33 0 0 0-.7.07.43.43 0 0 1-.3.12.42.42 0 0 1-.24-.07.43.43 0 0 1-.18-.51zm-3 9.73a.43.43 0 0 1 .15-.39 1.61 1.61 0 0 1 1.11-.78 5.74 5.74 0 0 1 3.26.57c-.17-.25-.13-.67 0-1.87a12 12 0 0 0 .14-1.27.42.42 0 0 1 .42-.42.43.43 0 0 1 .42.42 11.81 11.81 0 0 1-.14 1.32 10 10 0 0 0-.13 1.34.42.42 0 0 1-.38.59 5.2 5.2 0 0 1 .89.54c1.58 1.16 3 3.41 2.49 5.59a.42.42 0 0 1-.36.32 4.82 4.82 0 0 1-.64 0c-3.23.07-6.74-2.78-7.23-5.96zm10.63 24.11c.19-1.26.42-2.41.67-3.63l.09-.46a19 19 0 0 1-3.59-.76c-.41-.09-1.31-.33-2.2-.6-.6-.18-1-.32-1.27-.42a17.17 17.17 0 0 1-1.38 3 .42.42 0 0 1-.77-.32 12.65 12.65 0 0 0 .27-1.95 13.14 13.14 0 0 1 .3-2.08 11.76 11.76 0 0 0 .55-3.65.41.41 0 0 1 0-.21.4.4 0 0 1 .22-.2 9.1 9.1 0 0 0 2-1.09c1.29-.85 2.62-1.73 4.4-1.08s4.3 2 5.24 4.77a.41.41 0 0 1-.12.46.36.36 0 0 1-.11.07 38.41 38.41 0 0 1-2 4.78c-.54 1.16-1.1 2.37-1.57 3.6A.43.43 0 0 1 46 94h-.1a.42.42 0 0 1-.27-.47zm51-63.94a.85.85 0 0 1-.38-.09c-.83-.41-1.17-2.28-.77-3.18a.42.42 0 0 1 .56-.22h.09a2.32 2.32 0 0 1 1.64 1.13 1.51 1.51 0 0 1-.09 1.47c-.33.73-.68.89-1.02.89zm3.28 4.88a1 1 0 0 1-.81.41 1.36 1.36 0 0 1-.74-.24 1.33 1.33 0 0 1-.7-1c-.05-.67.54-1.2 1.06-1.67a3.88 3.88 0 0 0 .49-.48l.07-.08a.42.42 0 0 1 .59 0 2.77 2.77 0 0 1 .07 3.06zm1-5.56a1.32 1.32 0 0 1-.52.11 1.1 1.1 0 0 1-.43-.09.42.42 0 0 1-.25-.41 3.85 3.85 0 0 1 1.29-2.57.44.44 0 0 1 .16-.22c.53-.38.88-.23 1-.11.52.38.33 1.39.21 1.74a3.16 3.16 0 0 1-1.46 1.55zm2.51 4.64a1 1 0 0 1-.26 0 .75.75 0 0 1-.74-.54 2.24 2.24 0 0 1 .67-2 .4.4 0 0 1 .16-.07c.57-.12 1 .27 1.07.93s-.27 1.55-.9 1.68z" transform="translate(-2.46 -4.81)"/><path class="cls-1" d="M47.68 87.76c-.13.45-.25.88-.34 1.26s-.13.67-.2 1c0-.07.08-.15.11-.23a37 37 0 0 0 1.95-4.69c-.32-.18-.62-.38-.91-.58a11.14 11.14 0 0 1-.61 3.24zM107.85 35.33l-.31-.38a3.49 3.49 0 0 0-.82-.83 3.17 3.17 0 0 1-.87 1.56l-.22.2a23.87 23.87 0 0 0 4 1.48 10.89 10.89 0 0 0-1.14-1.36c-.23-.23-.44-.45-.64-.67zM41.28 82.2l.32-.11a6.81 6.81 0 0 1 2.11-.44 8.41 8.41 0 0 1 4.62 1.87l.48.33a8.62 8.62 0 0 0-4.13-3c-1.36-.5-2.41.19-3.62 1-.31.21-.63.42-1 .61a5.06 5.06 0 0 0 1.17-.26z" transform="translate(-2.46 -4.81)"/><path class="cls-1" d="M47.24 83.82l-.76-.47c0 .16.06.32.09.48l.05.32a3.7 3.7 0 0 1 .62-.33zM44.77 83.25l.62-.42a5.33 5.33 0 0 0-1.24-.29 4.43 4.43 0 0 0-.07 1.17zM100.62 28.12a2.34 2.34 0 0 0 1-1 1.9 1.9 0 0 0 .09-.61 3.33 3.33 0 0 0-1.09 1.61zM99.32 32.6c-.32.29-.8.72-.78 1s.2.27.31.35c.29.19.38.09.44 0a2.19 2.19 0 0 0 .24-1.51zM96.2 27a3 3 0 0 0 .22 1.36.74.74 0 0 0 .25.35 1.07 1.07 0 0 0 .32-.4.69.69 0 0 0 .06-.68 1.41 1.41 0 0 0-.85-.63zM46.78 87.83l-.09-.07a14.17 14.17 0 0 1-1-1.3l-.11-.15a4.46 4.46 0 0 0-.33.38 4.67 4.67 0 0 1-.4.46.43.43 0 0 1-.41.11.42.42 0 0 1-.3-.31 3.42 3.42 0 0 0-.2-.51h-.05a1.08 1.08 0 0 0-.3.26.42.42 0 0 1-.8-.25c0-.26-.26-.69-.51-1a4 4 0 0 1-2.41.64c-.1.25-.2.5-.29.76a33.62 33.62 0 0 0 3.36 1 15.93 15.93 0 0 0 3.55.73c.15-.22.22-.48.29-.75zM39.15 83.24a14.54 14.54 0 0 1-.59 3.3 9.46 9.46 0 0 0-.22 1.34c.13-.33.25-.65.37-1a18.81 18.81 0 0 1 1.65-3.62 3.33 3.33 0 0 1-1.21-.02zM41.6 84a6.2 6.2 0 0 1-.34-.53 10.55 10.55 0 0 0-1 1.78 2.74 2.74 0 0 0 1.74-.63.42.42 0 0 1-.16-.16 5 5 0 0 0-.24-.46zM42.45 83.3l.54-.72a10.07 10.07 0 0 0-1.08.31 3.72 3.72 0 0 0 .37.63zM39.85 73s.08-.27-.15-.76a.4.4 0 0 1 0-.29l-.7-.55a.47.47 0 0 1-.07.15.72.72 0 0 0 0 1 1 1 0 0 0 .92.45zM103.21 32.73a.7.7 0 0 0 .19-.4 1.09 1.09 0 0 0 0-.44 1.92 1.92 0 0 0-.19.84z" transform="translate(-2.46 -4.81)"/><path class="cls-1" d="M42.83 84.75a5.17 5.17 0 0 1 .67 1 1 1 0 0 0 .23-.21.42.42 0 0 1 .37-.23.42.42 0 0 1 .38.23c.07.15.16.32.25.51a2.52 2.52 0 0 1 .8-.7.43.43 0 0 1 .53.14l.36.51c.2.29.41.6.63.88a8.77 8.77 0 0 0 .38-2.2 4.8 4.8 0 0 0-.56.34l-.3.19a.44.44 0 0 1-.35 0A.43.43 0 0 1 46 85a4.23 4.23 0 0 1-.25-1c0-.11 0-.21-.05-.31l-.43.29c-.41.28-.83.56-1.17.76a.42.42 0 0 1-.55-.12 1.81 1.81 0 0 1-.29-.91l-.11.15-.52.69a.5.5 0 0 1 .13.11zM42.46 73.63c-.6-.34-1.17-.67-1.75-1a1 1 0 0 1-.39 1.06 1.08 1.08 0 0 1-.62.18 1.87 1.87 0 0 1-.41-.05 6 6 0 0 0 3.17.82 3.52 3.52 0 0 0 0-1.01z" transform="translate(-2.46 -4.81)"/></svg>